<?xml version="1.0" encoding="UTF-8" standalone="no"?>
<svg
   xmlns:dc="http://purl.org/dc/elements/1.1/"
   xmlns:cc="http://creativecommons.org/ns#"
   xmlns:rdf="http://www.w3.org/1999/02/22-rdf-syntax-ns#"
   xmlns:svg="http://www.w3.org/2000/svg"
   xmlns="http://www.w3.org/2000/svg"
   id="svg5417"
   version="1.1"
   viewBox="0 0 67.733332 67.733335"
   height="256"
   width="256">
  <defs
     id="defs5411" />
  <metadata
     id="metadata5414">
    <rdf:RDF>
      <cc:Work
         rdf:about="">
        <dc:format>image/svg+xml</dc:format>
        <dc:type
           rdf:resource="http://purl.org/dc/dcmitype/StillImage" />
        <dc:title></dc:title>
      </cc:Work>
    </rdf:RDF>
  </metadata>
  <g
     transform="translate(0,-229.26665)"
     id="layer1">
    <path
       id="path2337"
       d="m 14.453177,286.8361 -3.505086,-0.0177 -0.152792,-0.0816 c -0.235578,-0.12581 -0.422489,-0.31418 -0.531101,-0.53541 l -0.09884,-0.20144 -0.0088,-15.04389 -0.0088,-15.04394 -0.1481489,-0.18618 c -0.5710798,-0.71822 -0.8965866,-1.56127 -0.9744642,-2.5239 -0.027418,-0.34024 -0.00117,-0.49736 0.2206751,-1.32761 0.2238592,-0.83704 0.894906,-3.16674 1.472221,-5.11115 l 0.567609,-1.91174 v -2.26093 c 0,-2.18605 0.0022,-2.2672 0.07231,-2.4542 0.09663,-0.25835 0.311134,-0.49435 0.560555,-0.61683 l 0.203428,-0.0999 h 21.742203 21.74218 l 0.187508,0.0847 c 0.231045,0.10437 0.50983,0.39965 0.599184,0.63457 0.05948,0.15655 0.06634,0.3619 0.0838,2.53666 l 0.0199,2.36637 0.344633,1.13871 c 0.746426,2.46617 1.572808,5.33928 1.805357,6.27668 0.08734,0.35215 0.09309,0.6749 0.0199,1.15485 -0.116087,0.77049 -0.478896,1.57788 -0.985808,2.19413 l -0.102377,0.12449 -0.0066,15.05227 -0.0066,15.0523 -0.0838,0.16009 c -0.114981,0.21979 -0.309078,0.41546 -0.521085,0.52555 -0.143505,0.0745 -0.239713,0.0949 -0.498199,0.1057 -0.501738,0.0199 -38.088922,0.0292 -42.00763,0.009 z m 2.490909,-13.71785 0.01769,-11.45826 0.09508,-0.18021 c 0.113654,-0.21537 0.333334,-0.42233 0.558874,-0.52661 l 0.164511,-0.0761 h 16.066453 c 15.778535,0 16.069636,10e-4 16.244253,0.0686 0.232947,0.0898 0.522301,0.36641 0.628106,0.60036 l 0.0838,0.18507 0.0088,11.43155 0.0088,11.43157 h 2.259332 2.259355 v -13.64098 -13.64097 l -0.293555,0.0646 c -1.36792,0.30074 -2.8529,-0.1413 -3.939338,-1.17283 l -0.300808,-0.28557 -0.324335,0.31007 c -1.197063,1.14439 -2.877577,1.53194 -4.417836,1.01882 -0.666094,-0.22189 -1.22216,-0.55722 -1.722217,-1.03854 l -0.304921,-0.29349 -0.175567,0.18021 c -0.247673,0.25435 -0.695547,0.5979 -1.0295,0.78972 -1.380259,0.79286 -3.055599,0.77707 -4.443375,-0.0418 -0.315093,-0.18596 -0.886371,-0.64503 -1.028262,-0.82632 l -0.09353,-0.11962 -0.261117,0.25773 c -0.736166,0.7267 -1.642725,1.16509 -2.671496,1.29183 -1.267268,0.15611 -2.697455,-0.3617 -3.633577,-1.31567 l -0.210725,-0.2147 -0.292671,0.27704 c -0.353168,0.33433 -0.668349,0.56338 -1.058312,0.76918 -1.353525,0.71429 -2.976792,0.66947 -4.308073,-0.11897 -0.314163,-0.18596 -0.886636,-0.64597 -1.026493,-0.82467 l -0.09199,-0.11742 -0.24314,0.24314 c -0.5248,0.5248 -1.321796,0.9914 -2.000582,1.17124 -1.552465,0.41128 -3.203327,-0.0409 -4.32605,-1.18504 l -0.210725,-0.2147 -0.312394,0.29727 c -0.641992,0.61095 -1.412166,1.01314 -2.263358,1.18196 -0.412339,0.0818 -1.239605,0.0814 -1.604515,-10e-4 -0.143284,-0.0323 -0.283296,-0.0586 -0.311356,-0.0586 -0.04422,0 -0.05108,1.81095 -0.05108,13.60518 0,7.48285 0.01106,13.61598 0.02388,13.62916 0.01327,0.0133 1.034033,0.0199 2.268509,0.0155 l 2.24454,-0.009 z m 15.799564,0.74727 v -10.72877 h -6.778861 -6.77886 v 10.72877 10.72876 h 6.77886 6.778861 z m -3.760123,0.48787 c -0.931523,-0.33294 -1.016896,-1.60438 -0.13864,-2.06457 0.155666,-0.0816 0.223682,-0.0944 0.500433,-0.0951 0.374152,-10e-4 0.561792,0.0712 0.796486,0.30598 0.212052,0.21205 0.30313,0.426 0.318586,0.74839 0.01106,0.23547 2.21e-4,0.30085 -0.08225,0.48458 -0.240731,0.53641 -0.859682,0.8119 -1.39461,0.62072 z m 19.559709,-0.48787 v -10.72877 h -6.778883 -6.778861 v 10.72877 10.72876 h 6.778861 6.778883 z m -10.521228,0.48787 c -0.965243,-0.34499 -1.012562,-1.66915 -0.07474,-2.09005 0.183748,-0.0825 0.249111,-0.0935 0.484578,-0.0823 0.322389,0.0155 0.536343,0.10658 0.748394,0.31861 0.234694,0.23469 0.306756,0.42233 0.30596,0.79646 -4.64e-4,0.27693 -0.01327,0.34435 -0.09486,0.49818 -0.263417,0.49804 -0.859395,0.74134 -1.369468,0.55905 z M 14.093264,255.14676 c 0.34145,-0.0805 0.758234,-0.31323 1.016366,-0.56759 0.42386,-0.41764 0.633612,-0.8987 0.692009,-1.58711 0.04644,-0.54764 0.221471,-0.8433 0.62647,-1.05831 0.154561,-0.082 0.220012,-0.0944 0.498199,-0.0946 0.363584,-7e-5 0.532385,0.0643 0.777029,0.29676 0.223793,0.2125 0.312394,0.428 0.345341,0.83961 0.03427,0.42775 0.08314,0.64168 0.212051,0.92696 0.275159,0.60896 0.831844,1.07583 1.481862,1.24271 0.279449,0.0716 0.856322,0.073 1.134996,0.002 0.784789,-0.19857 1.449601,-0.87198 1.63346,-1.65438 0.02985,-0.12714 0.05462,-0.32002 0.05484,-0.42844 0.0012,-0.27038 0.08712,-0.57926 0.213599,-0.7629 0.390582,-0.56772 1.228086,-0.64135 1.718347,-0.15102 0.216695,0.2167 0.305187,0.44865 0.34355,0.90099 0.05815,0.68562 0.21758,1.04624 0.660677,1.49486 0.309807,0.31366 0.62574,0.4978 1.030694,0.60073 0.269233,0.0686 0.824259,0.0686 1.11379,3.1e-4 0.454772,-0.10724 0.955316,-0.43432 1.236002,-0.80772 0.298464,-0.39706 0.423197,-0.75646 0.474629,-1.36781 0.04422,-0.52526 0.225274,-0.82434 0.628702,-1.03852 0.154561,-0.082 0.220012,-0.0944 0.498178,-0.0946 0.357325,-6e-5 0.508172,0.0562 0.75998,0.28372 0.233257,0.21072 0.328979,0.43507 0.36208,0.84858 0.03449,0.43178 0.08314,0.64515 0.212494,0.93102 0.275158,0.60897 0.831843,1.07582 1.481862,1.2427 0.279448,0.0716 0.856321,0.073 1.134995,0.002 0.375789,-0.0951 0.719958,-0.29393 1.015526,-0.58665 0.434827,-0.4306 0.615612,-0.83299 0.671577,-1.49473 0.03538,-0.41882 0.07474,-0.55646 0.220012,-0.77028 0.381472,-0.56127 1.22541,-0.63275 1.71304,-0.14506 0.218022,0.21802 0.301051,0.44042 0.342002,0.91671 0.05793,0.67472 0.254064,1.10101 0.702822,1.52828 0.277126,0.26386 0.628725,0.45974 0.990097,0.5516 0.26921,0.0683 0.824237,0.0685 1.11379,3e-4 0.766879,-0.18087 1.433614,-0.83865 1.625367,-1.60367 0.02897,-0.11609 0.067,-0.37292 0.08447,-0.5709 0.0471,-0.53955 0.218685,-0.82291 0.62961,-1.03994 0.154119,-0.0814 0.220675,-0.094 0.498177,-0.094 0.359183,-8e-5 0.507951,0.0562 0.765619,0.28883 0.223572,0.2021 0.320112,0.44181 0.358719,0.8913 0.03914,0.45678 0.102156,0.69409 0.268303,1.01137 0.246701,0.47122 0.713436,0.87109 1.234344,1.05749 0.334595,0.11963 0.960998,0.14992 1.308086,0.0632 0.755182,-0.18883 1.388904,-0.79777 1.614466,-1.55136 0.03228,-0.10768 0.07208,-0.35863 0.08845,-0.55772 0.03494,-0.42262 0.131786,-0.67264 0.341317,-0.88228 0.329,-0.329 0.861495,-0.42205 1.269279,-0.2218 0.249951,0.12272 0.502158,0.39482 0.576564,0.622 0.03029,0.0924 0.07076,0.3376 0.09,0.54494 0.05948,0.64062 0.263218,1.07379 0.70103,1.49064 0.431289,0.41066 0.927941,0.60555 1.543067,0.60555 0.187508,0 0.436353,-0.0243 0.552993,-0.0539 0.792285,-0.20144 1.448142,-0.86556 1.633438,-1.65416 0.07297,-0.31058 0.06921,-0.48517 -0.01769,-0.83029 -0.179326,-0.70928 -1.333978,-4.7004 -1.780193,-6.15317 l -0.106579,-0.34695 H 33.868916 13.254677 l -0.07828,0.25798 c -0.04312,0.14195 -0.31664,1.06664 -0.607873,2.05502 -0.930772,3.15888 -1.282415,4.42418 -1.281331,4.61038 0.0012,0.21802 0.109674,0.60469 0.251521,0.89792 0.266911,0.55144 0.821252,1.00469 1.420347,1.16133 0.259128,0.0677 0.849732,0.0683 1.134642,0.001 z m 40.1079,-12.36442 v -1.13875 l -20.327693,0.009 -20.327715,0.009 -0.0088,1.12982 -0.0088,1.12982 h 20.337113 20.337113 z"
       style="fill:#000000;stroke-width:0.03558461" />
  </g>
  <g
     style="display:none"
     id="layer5">
    <path
       id="path2363"
       d="m 21.155494,289.20929 c -3.084941,-0.2454 -4.505023,-0.45406 -6.487893,-0.95337 -3.490492,-0.87896 -5.8251371,-2.27963 -6.6179091,-3.97038 l -0.2690556,-0.57378 v -11.69023 -11.69021 l 0.2316867,-0.50236 c 0.8423687,-1.82658 3.332968,-3.26004 7.272527,-4.18564 3.433112,-0.80663 8.249756,-1.06729 12.179475,-0.65908 0.606039,0.063 1.123741,0.0926 1.150452,0.0659 0.02676,-0.0267 0.04953,-2.79525 0.05064,-6.15226 0.0017,-5.78509 0.01327,-6.13322 0.200995,-6.66965 0.52668,-1.49849 2.412501,-2.85069 5.296335,-3.79764 3.479039,-1.14243 8.448607,-1.65111 12.925636,-1.32306 6.707064,0.49146 11.386106,2.30619 12.595264,4.88497 l 0.269055,0.5738 v 15.36575 15.36573 l -0.288956,0.58864 c -1.162944,2.36927 -5.276346,4.08658 -11.324016,4.72767 -2.319521,0.24586 -7.726923,0.17822 -9.036336,-0.11322 l -0.229719,-0.0511 v 2.50588 c 0,2.23854 -0.02211,2.56746 -0.202764,3.08299 -0.937936,2.66853 -5.796127,4.63004 -12.712567,5.13266 -1.313061,0.0955 -4.021616,0.11587 -5.002802,0.0378 z m 6.219832,-2.24131 c 2.907449,-0.28493 5.941997,-1.05721 7.621074,-1.93953 0.860943,-0.45239 1.705014,-1.18325 1.896855,-1.64237 0.10083,-0.24153 0.13842,-0.88576 0.13842,-2.37529 v -2.04392 l -0.944415,0.50446 c -5.090895,2.7193 -15.209136,3.28158 -22.265941,1.23737 -1.247611,-0.36142 -2.596802,-0.91613 -3.390127,-1.39386 -0.320288,-0.19281 -0.5997145,-0.35065 -0.6210081,-0.35065 -0.094196,0 -0.026534,3.86912 0.074295,4.23708 0.2295861,0.8392 1.5559591,1.79556 3.4087011,2.45776 3.782721,1.35198 8.843168,1.82236 14.082212,1.30895 z m 0.314428,-7.33654 c 4.64499,-0.54636 8.407987,-1.96739 9.123457,-3.44539 0.200995,-0.41537 0.218464,-0.61519 0.218464,-2.50552 v -2.05416 l -0.689157,0.40343 c -1.907292,1.11647 -5.138745,1.99534 -8.805954,2.39497 -1.991604,0.21713 -6.1772,0.21669 -8.2029,-5.1e-4 -3.746812,-0.40195 -7.196087,-1.34685 -8.943688,-2.45007 -0.225606,-0.1424 -0.457072,-0.25895 -0.5143413,-0.25895 -0.1379773,0 -0.1384195,3.70102 -4.865e-4,4.19765 0.064566,0.23246 0.3041028,0.55964 0.6474318,0.88435 1.538976,1.45551 5.485545,2.6235 10.07132,2.9806 1.596401,0.12427 5.474423,0.0442 7.09581,-0.14638 z m 21.164357,-3.16229 c 4.915505,-0.63929 8.564163,-2.13668 8.995983,-3.69195 0.123604,-0.44538 0.155666,-4.26405 0.03516,-4.20901 -0.04201,0.0199 -0.604933,0.29627 -1.250706,0.61561 -2.594171,1.28285 -5.809615,1.98817 -10.235323,2.24516 -1.992864,0.11564 -4.534409,0.0433 -6.840574,-0.19481 l -0.484977,-0.05 v 2.51169 c 0,1.38143 -0.01106,2.54509 -0.02543,2.58588 -0.137756,0.4008 7.101471,0.53913 9.805935,0.18729 z m -22.389546,-4.04214 c 3.563527,-0.29926 6.543924,-1.01868 8.565887,-2.06762 0.974177,-0.50539 1.834766,-1.30532 1.93261,-1.79642 0.09596,-0.48098 0.08646,-4.19878 -0.01106,-4.19878 -0.04356,0 -0.181095,0.0712 -0.305275,0.15832 -0.388016,0.27178 -1.776633,0.92657 -2.569604,1.21168 -3.370757,1.21192 -8.730774,1.81073 -13.330369,1.48925 -4.162755,-0.29097 -7.604977,-1.11598 -10.042641,-2.40697 -0.469609,-0.2487 -0.8716223,-0.45217 -0.8933582,-0.45217 -0.094196,0 -0.028082,3.866 0.072305,4.22699 0.4908812,1.76799 5.1936492,3.45153 10.8127272,3.87088 1.087079,0.0811 4.642513,0.0595 5.768553,-0.0352 z m 21.722413,-3.2113 c 5.234179,-0.5555 9.204894,-2.10873 9.661944,-3.7795 0.109895,-0.40203 0.164069,-4.23707 0.0597,-4.23707 -0.02919,0 -0.225075,0.10857 -0.435335,0.24133 -2.081267,1.31388 -5.916968,2.2986 -10.231874,2.62683 -1.79304,0.13643 -5.893927,0.0703 -7.229586,-0.11653 -0.466668,-0.0652 -0.867178,-0.0999 -0.890042,-0.0772 -0.02278,0.0228 -0.04621,1.18709 -0.05174,2.58716 l -0.01106,2.54559 0.287652,0.073 c 1.14112,0.28949 6.602917,0.37378 8.839409,0.13643 z m -22.590232,-4.07807 c 5.302195,-0.17955 10.515899,-1.89507 11.298742,-3.71752 0.615967,-1.43403 -2.654005,-3.24898 -7.290305,-4.04644 -3.632361,-0.62477 -8.792819,-0.62568 -12.386485,-0.002 -4.211334,0.73066 -7.3442795,2.29814 -7.3442795,3.67446 0,1.3777 3.1601645,2.96474 7.2992385,3.66571 2.004539,0.33948 5.283289,0.58859 6.585316,0.50034 0.196574,-0.0133 1.023531,-0.0466 1.837773,-0.0743 z m 22.920957,-3.27387 c 2.354082,-0.2723 4.461109,-0.73636 6.037565,-1.32975 1.698248,-0.63921 3.098009,-1.64841 3.30126,-2.38011 0.05727,-0.2063 0.104368,-1.26322 0.10481,-2.34875 l 5.75e-4,-1.97372 -0.334816,0.20697 c -1.557374,0.9625 -4.214165,1.85387 -6.863107,2.30261 -3.570846,0.60491 -8.450596,0.64575 -12.200702,0.10215 -2.957245,-0.42872 -5.785756,-1.31881 -7.427619,-2.33734 l -0.433921,-0.26919 v 0.81533 0.81532 l 0.587067,0.11852 c 2.759677,0.55675 5.271216,1.67784 6.514537,2.90794 0.927477,0.91761 1.204117,1.4825 1.212851,2.47656 0.0044,0.56723 0.04245,0.75104 0.159647,0.7843 0.151023,0.0429 2.174534,0.23102 3.267163,0.30384 1.105034,0.0736 4.771646,-0.0438 6.074823,-0.19459 z m 0.350737,-7.34819 c 4.788539,-0.60002 8.553217,-2.14647 8.981654,-3.68943 0.106136,-0.38209 0.163626,-4.22701 0.06324,-4.22701 -0.02698,0 -0.47465,0.22627 -0.995448,0.50284 -5.260912,2.79371 -15.918857,3.2499 -22.897983,0.9801 -0.449222,-0.14615 -1.345146,-0.5276 -1.990897,-0.8478 -0.645773,-0.32018 -1.208583,-0.59791 -1.250706,-0.61714 -0.04223,-0.0199 -0.07562,0.8762 -0.07429,1.98992 0.0022,2.33606 0.07164,2.60543 0.827355,3.22374 1.771747,1.44975 5.237739,2.42625 10.196981,2.87286 1.031247,0.0929 5.927271,-0.036 7.140232,-0.18817 z m 0.261869,-7.34861 c 5.062813,-0.71136 8.728607,-2.3434 8.728607,-3.88601 0,-1.15127 -2.14329,-2.44631 -5.395882,-3.26028 -2.035341,-0.50937 -3.814739,-0.75311 -6.344564,-0.86908 -6.499944,-0.29798 -12.886962,1.06386 -14.874564,3.17155 -0.706625,0.74932 -0.653601,1.31883 0.193699,2.08067 1.544084,1.38826 4.882293,2.43384 9.269593,2.90338 1.426229,0.15257 6.999005,0.0599 8.423067,-0.14019 z"
       style="fill:#050505;fill-opacity:1;stroke-width:0.10209795"
       transform="translate(0,-229.26665)" />
  </g>
  <g
     style="display:none"
     id="layer6">
    <path
       id="path2376"
       d="m 10.465618,285.104 c -3.6399455,-0.34047 -6.7437254,-2.83381 -7.8885163,-6.337 -0.3305704,-1.01159 -0.4200123,-1.61108 -0.4170715,-2.79494 0.00442,-1.67393 0.2734337,-2.70239 1.1825134,-4.51686 l 0.4620026,-0.9221 0.00221,-1.96018 c 0.00175,-1.07808 0.029187,-3.11143 0.061471,-4.51858 0.085572,-3.72421 0.1479275,-4.02429 1.3311043,-6.41156 1.0194836,-2.05679 4.5168303,-8.72182 6.4718165,-12.33355 l 0.6115,-1.1296 -0.547464,-1.45834 c -0.301118,-0.80206 -0.547486,-1.4892 -0.547486,-1.52697 0,-0.0482 4.638931,-0.0685 15.548706,-0.0685 h 15.548684 l 0.530527,0.40128 c 1.643764,1.24325 3.064509,2.49029 4.745222,4.16503 3.207617,3.19623 6.17824,6.77738 9.644188,11.62626 1.309722,1.83229 1.655373,2.25058 2.733784,3.30814 0.850904,0.83443 4.139847,3.95325 4.537085,4.30237 l 0.221117,0.19436 0.420366,4.14529 c 0.492119,4.85304 0.554275,6.24046 0.303838,6.78257 -0.178884,0.387 -0.637393,0.87998 -1.220767,1.31225 -0.493623,0.36577 -0.508437,0.39005 -0.909279,1.49117 -0.302488,0.83089 -0.846592,1.88383 -1.271889,2.46128 -0.495015,0.67213 -1.6877,1.82689 -2.325469,2.25152 -1.068925,0.71169 -2.338802,1.24742 -3.361757,1.41823 -0.61652,0.10282 -2.86378,0.10569 -3.468513,0.004 -0.663198,-0.11122 -1.386915,-0.35996 -2.198327,-0.75556 -1.953306,-0.95228 -3.552869,-2.59731 -4.462037,-4.58884 l -0.316729,-0.6938 H 32.955065 20.02368 l -0.321261,0.65926 c -1.044315,2.14298 -2.452059,3.62309 -4.356786,4.58077 -1.432354,0.72018 -3.267871,1.06334 -4.880657,0.91249 z m 2.307072,-5.17089 c 0.829698,-0.29957 1.825589,-1.18172 2.253583,-1.99623 0.350803,-0.66755 0.457758,-1.19721 0.416409,-2.06196 -0.06191,-1.2957 -0.369996,-2.04147 -1.177738,-2.85113 -0.851699,-0.85371 -1.746738,-1.2167 -3.011817,-1.22141 -1.096255,-0.004 -1.9891272,0.35153 -2.7980408,1.11439 -0.8633527,0.8142 -1.2793407,1.70895 -1.3301535,2.86099 -0.05749,1.30506 0.2950148,2.1962 1.243387,3.14274 0.988881,0.98696 1.5654666,1.20659 3.0791033,1.17292 0.76186,-0.0177 1.012076,-0.0471 1.325267,-0.16031 z m 43.294333,-0.002 c 0.555845,-0.19459 1.046129,-0.53909 1.605445,-1.12806 0.768338,-0.80906 1.077991,-1.62222 1.077969,-2.83081 0,-1.1929 -0.375944,-2.1076 -1.212608,-2.9503 -0.843828,-0.84993 -1.743819,-1.21382 -3.018163,-1.22032 -0.525861,-0.002 -0.782932,0.0287 -1.133492,0.13842 -1.351668,0.42293 -2.544817,1.65393 -2.84746,2.93783 -0.204755,0.86872 -0.07783,2.27377 0.267242,2.95561 0.384634,0.76024 1.210153,1.56792 2.000007,1.95675 0.583307,0.28715 0.803805,0.32283 1.875627,0.30342 0.808958,-0.0155 1.0408,-0.0418 1.385433,-0.16252 z M 28.43746,265.34874 c 1.311381,-0.0349 2.649627,-0.0933 2.973874,-0.13002 0.936786,-0.10613 1.886463,-0.4834 2.884741,-1.14601 0.484711,-0.32174 1.432288,-1.23153 1.832399,-1.75934 0.440311,-0.58081 0.932165,-1.59244 1.140303,-2.34534 l 0.171808,-0.6213 1.943555,-0.0427 c 1.068947,-0.0234 2.949705,-0.0427 4.179471,-0.0427 h 2.235939 l 0.308392,-0.31996 c 0.508769,-0.52781 0.558344,-1.06552 0.143727,-1.5583 -0.450748,-0.5357 -0.874497,-0.5805 -5.503434,-0.58196 l -3.375909,-5.7e-4 -0.04378,-0.32976 c -0.08027,-0.60458 -0.602236,-1.76648 -1.152199,-2.56443 -0.373622,-0.54209 -1.275648,-1.43394 -1.832664,-1.81199 -0.553656,-0.37576 -1.337716,-0.75644 -1.966596,-0.95483 -0.771036,-0.24323 -1.620768,-0.29565 -4.810629,-0.29685 l -2.761579,-5.9e-4 -0.02499,0.6762 c -0.01327,0.37189 -0.04068,0.69185 -0.05992,0.711 -0.0199,0.0199 -1.293492,0.0654 -2.831872,0.10304 -1.538379,0.0374 -2.930866,0.0931 -3.094404,0.1236 -0.554717,0.10371 -0.998721,0.71417 -0.998721,1.37334 0,0.44759 0.244401,0.9692 0.538929,1.1503 0.35171,0.21625 0.832662,0.26112 3.638752,0.33946 1.496212,0.0418 2.733519,0.0873 2.749616,0.10105 0.01548,0.0133 0.04157,1.23374 0.05661,2.71087 l 0.02742,2.68572 -2.615133,0.001 c -1.438346,5.7e-4 -2.813166,0.0301 -3.055201,0.065 -0.810925,0.11719 -1.14123,0.40385 -1.283829,1.11394 -0.16031,0.79788 0.199448,1.50055 0.872883,1.70555 0.461494,0.14041 1.935705,0.21868 4.170472,0.22116 l 1.894533,0.002 v 0.74486 0.74485 l 0.631511,-10e-4 c 0.347332,-5.7e-4 1.704461,-0.0299 3.015842,-0.0646 z"
       style="fill:none;stroke:#000000;stroke-width:2.1414237;stroke-linecap:butt;stroke-linejoin:bevel;stroke-miterlimit:4;stroke-dasharray:none;stroke-opacity:1;paint-order:stroke fill markers"
       transform="translate(0,-229.26665)" />
  </g>
  <g
     style="display:none"
     id="layer7">
    <path
       id="path2350"
       d="m 13.038743,290.04839 c -0.419234,-0.41924 -0.478295,-2.01662 -0.478295,-12.93577 v -12.45744 h -2.539979 c -2.1360203,0 -2.6258218,-0.0949 -3.0797823,-0.59648 -0.353476,-0.39059 -0.476561,-0.84845 -0.3565871,-1.32646 0.2758571,-1.09913 26.5226034,-26.99229 27.3608584,-26.99229 0.813248,0 26.9328,25.94311 27.20902,27.02517 0.113433,0.44409 -0.01769,0.91361 -0.361881,1.29358 -0.453953,0.50162 -0.94375,0.59648 -3.079788,0.59648 h -2.539975 v 12.45744 c 0,10.91915 -0.05904,12.51653 -0.478299,12.93577 -0.425275,0.42527 -2.73405,0.4783 -20.82764,0.4783 -18.093583,0 -20.402371,-0.0531 -20.827652,-0.4783 z m 39.094554,-14.96852 c 0.0022,-7.1945 0.12471,-12.59283 0.290327,-12.8549 0.172472,-0.27295 0.955758,-0.51392 1.978448,-0.60874 l 1.692808,-0.15699 -11.114242,-11.10796 -11.114243,-11.10796 -11.11424,11.10796 -11.114244,11.10796 1.692802,0.15699 c 1.022694,0.0949 1.805876,0.33579 1.978456,0.60874 0.165705,0.26207 0.287618,5.6604 0.290327,12.8549 l 0.0046,12.40311 H 33.86633 52.128566 l 0.0044,-12.40311 z m -14.353147,4.13715 c -1.307931,-0.75841 -2.391892,-2.52987 -2.391892,-3.90887 0,-2.21708 2.348465,-4.56556 4.565542,-4.56556 1.400668,0 3.169363,1.09895 3.920941,2.4362 0.35454,0.63083 0.644624,1.58902 0.644624,2.12936 0,2.23965 -2.359079,4.5739 -4.607002,4.55856 -0.56312,-0.004 -1.522614,-0.29619 -2.132213,-0.64969 z m 3.217213,-2.86533 c 0.923055,-0.92305 0.254993,-2.5654 -1.043563,-2.5654 -0.726238,0 -1.52184,0.79562 -1.52184,1.52186 0,0.72624 0.795602,1.52184 1.52184,1.52184 0.310891,0 0.7805,-0.21515 1.043563,-0.4783 z m -15.783798,1.52186 c -0.263063,-0.26306 -0.478299,-0.70726 -0.478299,-0.98711 0,-0.65139 16.116978,-16.79682 16.767196,-16.79682 0.781451,0 1.59074,1.10017 1.390341,1.89004 -0.267375,1.05383 -15.753328,16.37219 -16.551296,16.37219 -0.357304,0 -0.864879,-0.21514 -1.127942,-0.4783 z m 0.391754,-10.83134 c -1.307931,-0.75843 -2.391893,-2.52987 -2.391893,-3.90889 0,-2.21708 2.348465,-4.56556 4.565565,-4.56556 0.540322,0 1.498534,0.29008 2.12936,0.64462 1.337229,0.75158 2.436182,2.52027 2.436182,3.92094 0,2.23965 -2.359057,4.57392 -4.607002,4.55856 -0.563119,-0.004 -1.522614,-0.29619 -2.132212,-0.64967 z m 3.217213,-2.86533 c 0.263063,-0.26306 0.478299,-0.73267 0.478299,-1.04356 0,-0.31089 -0.215147,-0.7805 -0.478299,-1.04356 -0.263063,-0.26307 -0.73265,-0.4783 -1.043541,-0.4783 -0.310913,0 -0.7805,0.21514 -1.043564,0.4783 -0.263063,0.26306 -0.478299,0.73267 -0.478299,1.04356 0,0.31089 0.215148,0.7805 0.478299,1.04356 0.263064,0.26307 0.732651,0.4783 1.043564,0.4783 0.310891,0 0.780478,-0.21514 1.043541,-0.4783 z"
       style="fill:#000000;stroke-width:0.30437064"
       transform="translate(0,-229.26665)" />
  </g>
</svg>
